<svg xmlns="http://www.w3.org/2000/svg" version="1.0" width="1305.000000" height="134.000000" preserveAspectRatio="xMidYMid meet" style=""><rect id="backgroundrect" width="100%" height="100%" x="0" y="0" fill="none" stroke="none"/>
<metadata>
Created by potrace 1.16, written by Peter Selinger 2001-2019
</metadata>

<g class="currentLayer" style=""><title>Layer 1</title><g transform="translate(0,134) scale(0.10000000149011612,-0.10000000149011612) " fill="#919191" stroke="none" id="svg_1" class="" opacity="1" stroke-width="1" filter="" fill-opacity="1">
<path d="M9660.758619308472,1281.6206903457642 c-80,-3 -89,-6 -108,-30 c-29,-37 -25,-63 25,-163 c25,-49 45,-92 45,-95 c0,-3 -42,-5 -93,-5 c-88,0 -94,-1 -106,-23 c-11,-21 -8,-33 24,-98 c97,-192 247,-468 264,-483 c35,-32 64,-12 111,76 l42,80 l25,-44 c14,-23 36,-65 49,-91 c33,-63 58,-87 93,-87 c60,0 59,-1 386,619 c184,348 189,335 -155,344 c-235,7 -420,7 -602,0 zm422,-298 c10,-12 -5,-47 -80,-192 c-98,-190 -113,-213 -141,-213 c-17,0 -105,148 -190,322 c-49,99 -51,98 196,98 c166,0 205,-3 215,-15 z" id="svg_2" opacity="1" stroke-width="1" filter="" fill="#919191" fill-opacity="1"/>
<path d="M559.7586193084717,1177.6206903457642 c-108,-17 -187,-82 -229,-188 c-32,-81 -32,-271 0,-352 c48,-121 139,-187 272,-196 c131,-9 237,36 304,129 c15,21 30,54 33,73 l6,35 l-81,0 c-77,0 -82,-2 -121,-34 c-95,-79 -219,-39 -238,77 l-6,37 l233,0 l233,0 l-6,88 c-10,159 -66,257 -174,304 c-65,29 -153,39 -226,27 zm132,-172 c30,-15 58,-53 67,-89 l6,-28 l-131,0 c-121,0 -131,1 -131,19 c0,26 41,83 70,98 c32,16 88,16 119,0 z" id="svg_3" opacity="1" stroke-width="1" filter="" fill="#919191" fill-opacity="1"/>
<path d="M2330.7586193084717,1178.6206903457642 c-181,-31 -281,-211 -249,-444 c19,-137 69,-215 169,-262 c143,-68 332,-28 414,86 c61,84 86,247 57,378 c-22,104 -112,209 -197,231 c-59,15 -143,20 -194,11 zm138,-179 c17,-11 41,-40 54,-65 c19,-40 21,-59 18,-134 c-4,-101 -25,-155 -72,-183 c-69,-42 -152,-10 -183,71 c-26,66 -25,202 3,255 c35,69 117,94 180,56 z" id="svg_4" opacity="1" stroke-width="1" filter="" fill="#919191" fill-opacity="1"/>
<path d="M3978.7586193084717,1177.6206903457642 c-68,-10 -130,-43 -174,-94 c-66,-75 -87,-154 -80,-309 c4,-97 8,-113 39,-173 c40,-77 97,-123 187,-149 c116,-34 274,3 337,78 c125,149 122,435 -7,567 c-66,68 -178,98 -302,80 zm149,-190 c84,-74 82,-287 -3,-363 c-53,-47 -152,-23 -189,46 c-26,50 -30,221 -6,268 c42,81 135,104 198,49 z" id="svg_5" opacity="1" stroke-width="1" filter="" fill="#919191" fill-opacity="1"/>
<path d="M1192.7586193084717,1169.6206903457642 c-99,-32 -163,-87 -190,-161 c-18,-51 -27,-524 -10,-545 c16,-19 160,-21 178,-3 c9,9 12,78 12,247 c0,263 3,275 63,305 c48,23 96,15 140,-24 l32,-28 l5,-254 l5,-253 l90,0 l90,0 l5,252 l5,253 l32,32 c27,26 40,32 80,32 c53,1 94,-22 112,-62 c7,-14 11,-100 11,-215 c0,-106 5,-209 11,-230 c13,-47 57,-70 127,-65 c46,3 47,4 56,45 c5,25 5,138 -1,275 c-8,209 -11,237 -31,275 c-27,52 -73,88 -148,114 c-82,29 -227,24 -298,-10 l-48,-24 l-47,23 c-38,19 -65,24 -151,26 c-58,2 -116,0 -130,-5 z" id="svg_6" opacity="1" stroke-width="1" filter="" fill="#919191" fill-opacity="1"/>
<path d="M4584.758619308472,1160.6206903457642 c-68,-24 -120,-67 -152,-123 c-25,-44 -25,-44 -25,-314 l0,-270 l88,-3 c64,-2 88,1 91,10 c3,7 7,120 9,251 c6,265 9,276 73,303 c46,19 101,9 135,-26 l27,-26 l4,-225 c4,-244 8,-260 62,-279 c16,-5 51,-10 77,-10 c47,0 48,1 55,36 c4,20 5,138 2,263 c-5,205 -7,231 -27,277 c-45,103 -122,146 -271,151 c-74,3 -107,-1 -148,-15 z" id="svg_7" opacity="1" stroke-width="1" filter="" fill="#919191" fill-opacity="1"/>
<path d="M2782.7586193084717,1115.6206903457642 c0,-45 4,-58 26,-78 c24,-23 34,-24 165,-27 c76,-2 139,-7 139,-10 c0,-4 -82,-97 -181,-207 l-180,-199 l3,-71 l3,-70 l313,-3 l312,-2 l0,85 l0,85 l-185,2 l-185,3 l181,195 l180,194 l-3,76 l-3,75 l-292,3 l-293,2 l0,-53 z" id="svg_8" opacity="1" stroke-width="1" filter="" fill="#919191" fill-opacity="1"/>
<path d="M3462.7586193084717,808.6206903457642 l0,-360 l95,0 l95,0 l0,334 l0,333 l-26,27 c-24,23 -35,26 -95,26 l-69,0 l0,-360 z" id="svg_9" opacity="1" stroke-width="1" filter="" fill="#919191" fill-opacity="1"/>
<path d="M5984.758619308472,885.6206903457642 l3,-284 l30,-49 c19,-30 49,-60 79,-79 c49,-30 52,-30 205,-33 l156,-4 l22,59 c12,32 25,66 29,76 c5,15 -2,17 -72,18 c-44,0 -117,4 -163,8 c-77,6 -85,9 -112,39 c-20,23 -29,43 -29,67 l0,35 l109,0 l109,0 l26,65 c14,36 26,70 26,75 c0,6 -53,10 -135,10 l-135,0 l0,65 l0,65 l163,0 l162,0 l28,68 c15,37 27,70 27,75 c0,4 -119,7 -265,7 l-266,0 l3,-283 z" id="svg_10" opacity="1" stroke-width="1" filter="" fill="#919191" fill-opacity="1"/>
<path d="M6805.758619308472,1147.6206903457642 c-58,-22 -143,-94 -178,-149 c-75,-119 -72,-282 6,-400 c90,-134 245,-195 399,-156 c68,17 170,77 170,99 c0,7 -23,35 -50,62 c-44,43 -53,48 -68,37 c-68,-50 -152,-65 -216,-38 c-51,21 -103,73 -122,121 c-53,140 49,291 196,289 c54,-1 130,-30 146,-55 c7,-12 114,87 114,106 c0,15 -88,72 -139,90 c-63,22 -193,19 -258,-6 z" id="svg_11" opacity="1" stroke-width="1" filter="" fill="#919191" fill-opacity="1"/>
<path d="M7492.758619308472,1149.6206903457642 c-97,-32 -186,-109 -228,-199 c-23,-49 -27,-70 -27,-152 c0,-82 4,-103 27,-152 c34,-73 103,-142 176,-176 c49,-23 70,-27 152,-27 c82,0 103,4 150,26 c78,37 131,87 171,161 c33,60 34,67 34,168 c0,90 -4,112 -24,152 c-35,71 -92,131 -163,168 c-56,30 -73,34 -153,37 c-49,1 -101,-1 -115,-6 zm186,-165 c92,-43 140,-140 116,-232 c-17,-63 -44,-99 -100,-131 c-119,-70 -271,-2 -303,134 c-28,124 73,249 206,252 c17,0 53,-10 81,-23 z" id="svg_12" opacity="1" stroke-width="1" filter="" fill="#919191" fill-opacity="1"/>
<path d="M8107.758619308472,807.6206903457642 c-77,-193 -141,-355 -143,-360 c-2,-5 34,-9 80,-9 l84,0 l58,145 c32,80 61,147 65,149 c4,3 33,-60 65,-140 c32,-79 62,-146 66,-149 c4,-3 26,40 48,94 l39,98 l-105,262 c-58,143 -108,261 -111,261 c-4,0 -69,-158 -146,-351 z" id="svg_13" opacity="1" stroke-width="1" filter="" fill="#919191" fill-opacity="1"/>
<path d="M8508.758619308472,1150.6206903457642 c-3,-6 -22,-51 -41,-101 l-35,-91 l103,-257 l103,-258 l83,-3 c76,-3 83,-1 79,15 c-7,23 -267,674 -278,692 c-4,9 -10,10 -14,3 z" id="svg_14" opacity="1" stroke-width="1" filter="" fill="#919191" fill-opacity="1"/>
<path d="M10622.758619308472,1083.6206903457642 c0,-20 124,-450 145,-502 c22,-54 52,-73 115,-73 c67,0 95,20 118,83 c22,57 142,479 142,496 c0,7 -24,11 -64,11 c-53,0 -66,-3 -70,-17 c-3,-10 -28,-107 -57,-215 c-55,-207 -63,-229 -77,-213 c-5,6 -35,108 -67,228 l-58,217 l-63,0 c-50,0 -64,-3 -64,-15 z" id="svg_15" opacity="1" stroke-width="1" filter="" fill="#919191" fill-opacity="1"/>
<path d="M11222.758619308472,1043.6206903457642 l0,-55 l75,0 l75,0 l0,-224 c0,-123 3,-231 6,-240 c5,-12 21,-16 65,-16 l59,0 l0,240 l0,240 l75,0 l75,0 l0,55 l0,55 l-215,0 l-215,0 l0,-55 z" id="svg_16" opacity="1" stroke-width="1" filter="" fill="#919191" fill-opacity="1"/>
<path d="M11802.758619308472,1080.6206903457642 c-63,-31 -70,-61 -70,-282 c0,-176 2,-198 20,-227 c31,-51 63,-66 150,-71 c43,-2 104,-1 134,2 l56,7 l0,50 l0,49 l-103,0 c-67,0 -107,4 -115,12 c-7,7 -12,39 -12,75 l0,63 l115,0 l115,0 l0,50 l0,50 l-115,0 l-115,0 l0,54 c0,33 5,58 13,63 c6,4 59,13 117,18 l105,10 l3,33 c6,57 -6,62 -142,62 c-95,0 -128,-4 -156,-18 z" id="svg_17" opacity="1" stroke-width="1" filter="" fill="#919191" fill-opacity="1"/>
<path d="M12504.758619308472,1013.6206903457642 c-30,-47 -58,-83 -62,-80 c-5,3 -30,39 -56,80 l-47,75 l-74,0 c-40,0 -73,-3 -73,-6 c0,-4 36,-64 80,-133 c44,-70 80,-133 80,-140 c0,-7 -33,-70 -74,-140 c-104,-175 -102,-163 -20,-159 l69,3 l47,80 c26,44 52,81 58,83 c5,2 34,-35 65,-82 l55,-86 l76,0 l76,0 l-28,48 c-15,26 -56,91 -91,145 c-34,54 -63,101 -63,104 c0,3 38,68 85,143 c47,75 85,140 85,143 c0,4 -30,7 -67,7 l-68,0 l-53,-85 z" id="svg_18" opacity="1" stroke-width="1" filter="" fill="#919191" fill-opacity="1"/>
</g></g><defs><filter id="f001" xmlns:inkscape="http://www.inkscape.org/namespaces/inkscape" inkscape:label="Matte jelly" x="0" y="0" width="1" height="1" inkscape:menu="ABCs" inkscape:menu-tooltip="Bulging, matte jelly covering" color-interpolation-filters="sRGB">
            <feColorMatrix values="1 0 0 0 0 0 1 0 0 0 0 0 1 0 0 0 0 0 0.85 0" result="result0" in="SourceGraphic"/>
            <feGaussianBlur in="SourceAlpha" stdDeviation="7"/>
            <feSpecularLighting surfaceScale="5" specularConstant=".9" specularExponent="25">
                <feDistantLight elevation="60" azimuth="225"/>
            </feSpecularLighting>
            <feComposite operator="atop" in2="result0"/>
        </filter></defs></svg>