<svg width="34" height="34" viewBox="0 0 34 34" fill="none" xmlns="http://www.w3.org/2000/svg">
<mask id="mask0" mask-type="alpha" maskUnits="userSpaceOnUse" x="5" y="5" width="25" height="24">
<path d="M24.988 21.379L28.4768 24.8548C29.3546 25.7359 29.8979 26.1815 28.4768 27.7182C26.9868 29.5698 26.5017 28.5993 25.6239 27.7182L22.1351 24.2424C23.2324 23.5816 24.3297 22.4803 24.988 21.379ZM15.5621 5.01573C17.9278 5.14818 20.2554 6.11694 22.0641 7.92199C25.9786 11.8289 25.9786 18.1711 22.0641 22.078C18.1604 25.974 11.8386 25.974 7.93595 22.078C4.02136 18.1711 4.02136 11.8289 7.93588 7.92205C10.0304 5.83107 12.8217 4.8623 15.5621 5.01573ZM9.37082 9.5661C6.27366 12.5694 6.27366 17.4306 9.37088 20.4339C12.477 23.4468 17.5221 23.4468 20.6292 20.4339C23.7263 17.4306 23.7263 12.5694 20.6292 9.5661C17.5221 6.55321 12.477 6.55321 9.37082 9.5661Z" fill="white"/>
</mask>
<g mask="url(#mask0)">
<path d="M24.988 21.379L28.4768 24.8548C29.3546 25.7359 29.8979 26.1815 28.4768 27.7182C26.9868 29.5698 26.5017 28.5993 25.6239 27.7182L22.1351 24.2424C23.2324 23.5816 24.3297 22.4803 24.988 21.379ZM15.5621 5.01573C17.9278 5.14818 20.2554 6.11694 22.0641 7.92199C25.9786 11.8289 25.9786 18.1711 22.0641 22.078C18.1604 25.974 11.8386 25.974 7.93595 22.078C4.02136 18.1711 4.02136 11.8289 7.93588 7.92205C10.0304 5.83107 12.8217 4.8623 15.5621 5.01573ZM9.37082 9.5661C6.27366 12.5694 6.27366 17.4306 9.37088 20.4339C12.477 23.4468 17.5221 23.4468 20.6292 20.4339C23.7263 17.4306 23.7263 12.5694 20.6292 9.5661C17.5221 6.55321 12.477 6.55321 9.37082 9.5661Z" fill="#008CBE"/>
</g>
</svg>
